<?xml version="1.0" standalone="no"?><!DOCTYPE svg PUBLIC "-//W3C//DTD SVG 1.1//EN" "http://www.w3.org/Graphics/SVG/1.1/DTD/svg11.dtd"><svg t="1523328737593" class="icon" style="" viewBox="0 0 1024 1024" version="1.1" xmlns="http://www.w3.org/2000/svg" p-id="2288" xmlns:xlink="http://www.w3.org/1999/xlink" width="200" height="200"><defs><style type="text/css"></style></defs><path d="M512 907.636364c-218.763636 0-395.636364-176.872727-395.636364-395.636364S293.236364 116.363636 512 116.363636s395.636364 176.872727 395.636364 395.636364-176.872727 395.636364-395.636364 395.636364z m0-744.727273C318.836364 162.909091 162.909091 318.836364 162.909091 512s155.927273 349.090909 349.090909 349.090909 349.090909-155.927273 349.090909-349.090909S705.163636 162.909091 512 162.909091z" p-id="2289"></path><path d="M512 311.854545m-39.563636 0a39.563636 39.563636 0 1 0 79.127272 0 39.563636 39.563636 0 1 0-79.127272 0Z" p-id="2290"></path><path d="M474.763636 772.654545c-4.654545 0-9.309091 0-13.963636-2.327272-25.6-4.654545-39.563636-25.6-46.545455-39.563637l-4.654545-13.963636 6.981818-11.636364c69.818182-141.963636 79.127273-195.490909 81.454546-216.436363-16.290909 4.654545-41.890909 20.945455-62.836364 39.563636l-44.218182-53.527273c37.236364-32.581818 109.381818-79.127273 153.6-44.218181 34.909091 27.927273 39.563636 83.781818-41.890909 258.327272 11.636364-6.981818 25.6-20.945455 41.890909-39.563636l51.2 46.545454c-46.545455 51.2-86.109091 76.8-121.018182 76.8z" p-id="2291"></path></svg>