<?xml version="1.0" standalone="no"?><!DOCTYPE svg PUBLIC "-//W3C//DTD SVG 1.1//EN" "http://www.w3.org/Graphics/SVG/1.1/DTD/svg11.dtd"><svg t="1523328663977" class="icon" style="" viewBox="0 0 1327 1024" version="1.1" xmlns="http://www.w3.org/2000/svg" p-id="698" xmlns:xlink="http://www.w3.org/1999/xlink" width="259.1796875" height="200"><defs><style type="text/css"></style></defs><path d="M796.444444 929.185185V540.444444c0-18.204444-9.860741-28.444444-28.444444-28.444444h-663.703704c-18.583704 0-28.444444 9.481481-28.444444 28.444444V929.185185H0c0.948148 1.706667 2.465185 6.068148 3.982222 6.068148 0 0 39.253333 23.703704 87.988148 26.927408 48.734815 3.413333 97.46963 5.12 97.65926 4.93037h493.037037s44.752593-1.517037 93.487407-4.740741c48.734815-3.223704 87.988148-26.927407 87.988148-26.927407 1.517037 0 7.205926-4.361481 8.343704-6.068148H796.444444zM113.777778 549.925926h644.740741v379.259259H113.777778V549.925926z m890.311111 417.185185c0.379259-0.18963 0.568889-0.18963 0.758518-0.379259 2.654815-0.758519 4.551111-3.223704 4.551112-6.068148a6.447407 6.447407 0 0 0-6.637038-6.447408h-1.327407c-25.78963 1.706667-49.872593-15.54963-55.561481-41.528889L929.185185 834.37037h369.208889c13.274074 0 29.013333-15.739259 29.013333-29.013333V237.605926c0-13.274074-15.739259-29.013333-29.013333-29.013333H446.198519c-13.274074 0-29.013333 15.739259-29.013334 29.013333L417.564444 493.037037H455.111111V246.518519h834.37037v474.074074H815.407407v189.629629h75.851852v18.962963c-0.758519 29.202963-56.888889 37.925926-56.888889 37.925926h169.718519z m-113.777778-173.89037c-0.568889 1.137778-1.137778 2.275556-1.706667 3.223703-0.568889 0.948148-1.327407 1.896296-1.896296 2.654815-0.568889 0.758519-1.137778 1.327407-1.517037 1.517037-0.758519 0.568889-1.327407 0.948148-2.085926 1.327408-0.568889 0.379259-1.327407 0.568889-2.085926 0.568889-0.379259 0-1.137778-0.18963-1.706666-0.37926l-2.085926-0.568889a6.788741 6.788741 0 0 1-2.085926-0.758518c-0.758519-0.18963-1.327407-0.18963-1.896297-0.18963s-1.327407 0-2.085925 0.37926c-0.758519 0.18963-1.517037 0.379259-2.275556 0.758518-0.758519 0.18963-1.517037 0.379259-2.085926 0.758519a5.878519 5.878519 0 0 1-1.517037 0.379259c-0.568889 0-1.137778-0.18963-1.706667-0.379259s-1.137778-0.568889-1.706666-0.948149c-0.568889-0.379259-1.137778-1.137778-1.896297-1.896296-0.758519-0.758519-1.327407-1.706667-2.275555-2.844444-0.758519-1.137778-1.327407-2.275556-2.085926-3.602963-0.568889-1.327407-1.137778-2.654815-1.517037-4.171852-0.379259-1.327407-0.758519-2.844444-0.948148-4.171852-0.18963-1.517037-0.379259-2.844444-0.37926-4.171852 0-2.085926 0.379259-3.982222 0.948149-5.688889a17.445926 17.445926 0 0 1 2.465185-4.551111c1.137778-1.327407 2.275556-2.275556 3.792592-3.034074 1.517037-0.758519 3.034074-1.137778 4.740741-1.137778 1.327407 0 2.654815 0.379259 4.361482 1.137778 1.706667 0.758519 2.844444 1.137778 3.413333 1.137778 0.18963 0 0.568889-0.18963 1.137778-0.379259s1.517037-0.568889 2.654815-0.948149c1.137778-0.379259 1.896296-0.568889 2.654814-0.758518 0.758519-0.18963 1.327407-0.18963 2.085926-0.18963 1.896296 0 3.602963 0.379259 5.30963 1.327408 1.706667 0.948148 3.034074 2.085926 3.982222 3.602963a13.274074 13.274074 0 0 0-3.982222 3.982222c-0.758519 1.517037-1.137778 3.223704-1.137778 5.30963 0 2.085926 0.568889 3.982222 1.706667 5.878518 1.137778 1.706667 2.654815 3.034074 4.740741 3.982222-0.379259 0.379259-0.948148 1.706667-1.327408 2.844445zM872.296296 764.397037c0-1.137778 0.18963-2.275556 0.758519-3.602963a11.757037 11.757037 0 0 1 2.085926-3.223704c0.758519-0.948148 1.896296-1.706667 3.034074-2.275555s2.465185-0.948148 3.602963-0.948148v1.137777c0 1.137778-0.18963 2.465185-0.758519 3.792593a11.757037 11.757037 0 0 1-2.085926 3.223704c-0.758519 0.948148-1.706667 1.706667-2.844444 2.275555s-2.085926 0.948148-3.223704 0.948148c-0.379259 0-0.758519 0-0.758518-0.189629 0.18963-0.568889 0.18963-0.948148 0.189629-1.137778z" p-id="699" fill="#2c2c2c"></path></svg>